<svg width="53" height="54" viewBox="0 0 53 54" fill="none" xmlns="http://www.w3.org/2000/svg">
<g clip-path="url(#clip0_1_1569)">
<path d="M48.2642 24.5928H46.6855V18.2783H43.5283V24.5928H40.3711V18.2783H37.2139V24.5928H35.6353C35.2166 24.5928 34.8151 24.7591 34.519 25.0551C34.223 25.3512 34.0566 25.7527 34.0566 26.1714V32.4858C34.059 34.3045 34.6884 36.0668 35.8386 37.4756C36.9888 38.8843 38.5896 39.8534 40.3711 40.2195V45.1147C40.3711 45.5334 40.2048 45.9349 39.9087 46.231C39.6127 46.527 39.2112 46.6934 38.7925 46.6934H10.3774C9.95877 46.6934 9.55724 46.527 9.26119 46.231C8.96515 45.9349 8.79883 45.5334 8.79883 45.1147C8.79883 44.6961 8.96515 44.2945 9.26119 43.9985C9.55724 43.7024 9.95877 43.5361 10.3774 43.5361H18.2705C19.5265 43.5361 20.7311 43.0372 21.6193 42.149C22.5074 41.2609 23.0063 40.0563 23.0063 38.8003C23.0063 37.5443 22.5074 36.3397 21.6193 35.4515C20.7311 34.5634 19.5265 34.0645 18.2705 34.0645H10.3774C9.95877 34.0645 9.55724 33.8981 9.26119 33.6021C8.96515 33.306 8.79883 32.9045 8.79883 32.4858C8.79883 32.0672 8.96515 31.6656 9.26119 31.3696C9.55724 31.0735 9.95877 30.9072 10.3774 30.9072H18.2705C19.5261 30.906 20.73 30.4066 21.6179 29.5187C22.5057 28.6309 23.0051 27.427 23.0063 26.1714V19.8569H24.585C26.259 19.8548 27.8639 19.1889 29.0476 18.0052C30.2314 16.8214 30.8973 15.2165 30.8994 13.5425V8.80664H26.1636C24.5473 8.80903 22.9941 9.43436 21.8271 10.5526C21.0093 9.06873 19.8087 7.83122 18.3503 6.96888C16.8919 6.10654 15.229 5.65091 13.5347 5.64941H8.79883V10.3853C8.80175 12.8964 9.8006 15.3039 11.5762 17.0795C13.3519 18.8552 15.7594 19.854 18.2705 19.8569H19.8491V26.1714C19.8491 26.5901 19.6828 26.9916 19.3868 27.2876C19.0907 27.5837 18.6892 27.75 18.2705 27.75H10.3774C9.12142 27.75 7.91684 28.249 7.0287 29.1371C6.14055 30.0252 5.6416 31.2298 5.6416 32.4858C5.6416 33.7419 6.14055 34.9464 7.0287 35.8346C7.91684 36.7227 9.12142 37.2217 10.3774 37.2217H18.2705C18.6892 37.2217 19.0907 37.388 19.3868 37.684C19.6828 37.9801 19.8491 38.3816 19.8491 38.8003C19.8491 39.219 19.6828 39.6205 19.3868 39.9165C19.0907 40.2126 18.6892 40.3789 18.2705 40.3789H10.3774C9.12142 40.3789 7.91684 40.8779 7.0287 41.766C6.14055 42.6541 5.6416 43.8587 5.6416 45.1147C5.6416 46.3708 6.14055 47.5753 7.0287 48.4635C7.91684 49.3516 9.12142 49.8506 10.3774 49.8506H38.7925C40.0481 49.8493 41.252 49.35 42.1398 48.4621C43.0277 47.5742 43.5271 46.3704 43.5283 45.1147V40.2195C45.3098 39.8534 46.9106 38.8843 48.0608 37.4756C49.2111 36.0668 49.8404 34.3045 49.8428 32.4858V26.1714C49.8428 25.7527 49.6765 25.3512 49.3804 25.0551C49.0844 24.7591 48.6828 24.5928 48.2642 24.5928ZM23.0063 15.1211C23.0072 14.284 23.3401 13.4814 23.932 12.8895C24.5239 12.2976 25.3265 11.9647 26.1636 11.9639H27.7422V13.5425C27.7414 14.3796 27.4084 15.1821 26.8165 15.7741C26.2246 16.366 25.4221 16.6989 24.585 16.6997H23.0063V15.1211ZM18.2705 16.6997C16.5965 16.6976 14.9916 16.0317 13.8078 14.8479C12.6241 13.6642 11.9581 12.0593 11.9561 10.3853V8.80664H13.5347C15.2087 8.80873 16.8136 9.47467 17.9974 10.6584C19.1811 11.8421 19.847 13.447 19.8491 15.1211V16.6997H18.2705ZM46.6855 32.4858C46.6855 33.7419 46.1866 34.9464 45.2985 35.8346C44.4103 36.7227 43.2057 37.2217 41.9497 37.2217C40.6937 37.2217 39.4891 36.7227 38.601 35.8346C37.7128 34.9464 37.2139 33.7419 37.2139 32.4858V27.75H46.6855V32.4858Z" fill="#F7AB3A"/>
</g>
<defs>
<clipPath id="clip0_1_1569">
<rect width="53" height="53" fill="white" transform="translate(0 0.0078125)"/>
</clipPath>
</defs>
</svg>
