<svg width="53" height="54" viewBox="0 0 53 54" fill="none" xmlns="http://www.w3.org/2000/svg">
<g clip-path="url(#clip0_1_1549)">
<path d="M52.3433 28.11C51.7991 27.107 51.7991 25.9093 52.3431 24.9062C53.5893 22.6079 53.0199 19.7448 50.989 18.0984C50.1026 17.3798 49.6443 16.2732 49.7628 15.1384C50.0347 12.5382 48.4129 10.1109 45.9066 9.36697C44.8127 9.04235 43.9658 8.19539 43.6411 7.10154C42.8971 4.59533 40.47 2.97294 37.8698 3.24529C36.7344 3.36392 35.6282 2.90555 34.9096 2.01915C33.2632 -0.0119209 30.4001 -0.581462 28.1018 0.664758C27.0986 1.20863 25.9011 1.20863 24.8979 0.664758C22.5999 -0.581358 19.7367 -0.0120246 18.09 2.01894C17.3716 2.90534 16.2641 3.36402 15.13 3.24508C12.5297 2.97294 10.1026 4.59502 9.35862 7.10133C9.034 8.19518 8.18714 9.04214 7.09319 9.36677C4.58688 10.1107 2.96501 12.5378 3.23684 15.138C3.35547 16.2729 2.89721 17.3795 2.0107 18.0981C-0.0200605 19.7445 -0.589601 22.6076 0.656619 24.9058C1.20059 25.9089 1.20059 27.1067 0.656619 28.1097C-0.589601 30.408 -0.020164 33.2711 2.0107 34.9175C2.8971 35.6361 3.35547 36.7427 3.23694 37.8775C2.96501 40.4777 4.58678 42.905 7.09319 43.6489C8.18714 43.9736 9.034 44.8205 9.35873 45.9144C10.1027 48.4207 12.5296 50.043 15.13 49.7706C16.2657 49.652 17.3716 50.1104 18.0902 50.9968C19.7365 53.0276 22.5998 53.5971 24.898 52.3508C25.9012 51.807 27.0988 51.807 28.1019 52.3508C28.9191 52.7939 29.8073 53.0074 30.6872 53.0074C32.2821 53.0074 33.8486 52.3055 34.9098 50.9968C35.6282 50.1104 36.7359 49.6522 37.8698 49.7706C38.0603 49.7905 38.2495 49.8003 38.4375 49.8003C40.8162 49.8002 42.9517 48.2371 43.6412 45.9143C43.9659 44.8204 44.8127 43.9735 45.9067 43.6487C48.4131 42.9048 50.0349 40.4776 49.763 37.8774C49.6444 36.7426 50.1026 35.636 50.9891 34.9174C53.02 33.2712 53.5895 30.4082 52.3433 28.11ZM50.5231 29.0971C51.2943 30.5192 50.9419 32.2908 49.6852 33.3097C48.2528 34.4711 47.5121 36.2593 47.7038 38.0934C47.872 39.7023 46.8684 41.2043 45.3174 41.6646C43.5497 42.1894 42.181 43.558 41.6563 45.3259C41.1961 46.8766 39.6957 47.8811 38.085 47.7121C36.2509 47.5205 34.4628 48.2612 33.3015 49.6936C32.2826 50.9504 30.5109 51.3026 29.0887 50.5316C28.2781 50.0919 27.3892 49.8723 26.4999 49.8723C25.6108 49.8723 24.7215 50.0921 23.9111 50.5316C22.489 51.3028 20.7172 50.9504 19.6985 49.6937C18.5372 48.2613 16.7492 47.5203 14.9147 47.7122C13.3062 47.8808 11.8039 46.8769 11.3434 45.326C10.8187 43.5581 9.45003 42.1895 7.6823 41.6648C6.13143 41.2044 5.12775 39.7024 5.29596 38.0935C5.48778 36.2595 4.74692 34.4713 3.31458 33.3099C2.0578 32.2911 1.70543 30.5195 2.47662 29.0972C3.35557 27.4761 3.35557 25.5406 2.47662 23.9193C1.70543 22.4973 2.0578 20.7256 3.31458 19.7067C4.74692 18.5454 5.48767 16.7571 5.29596 14.923C5.12775 13.3141 6.13133 11.8121 7.6823 11.3518C9.45003 10.8271 10.8187 9.45838 11.3434 7.69044C11.8037 6.13968 13.3048 5.13558 14.9147 5.30421C16.7488 5.49592 18.537 4.75516 19.6982 3.32272C20.7171 2.06594 22.4889 1.71378 23.911 2.48476C25.532 3.36381 27.4675 3.36381 29.0887 2.48476C30.5108 1.71347 32.2826 2.06594 33.3014 3.32261C34.4626 4.75506 36.2498 5.49581 38.0851 5.3041C39.6939 5.1362 41.1961 6.13937 41.6563 7.69034C42.181 9.45817 43.5497 10.8268 45.3174 11.3515C46.8683 11.8118 47.872 13.3138 47.7038 14.9227C47.512 16.7567 48.2528 18.5449 49.6852 19.7063C50.9419 20.7251 51.2943 22.4967 50.5231 23.919C49.6442 25.5403 49.6442 27.4759 50.5231 29.0971Z" fill="#F7AB3A" stroke="#F7AB3A" stroke-width="0.7"/>
<path d="M36.3972 8.08237C32.5212 5.9986 27.9739 5.18787 23.5934 5.79944C19.0641 6.43171 14.9562 8.47976 11.7138 11.7222C8.63107 14.8049 6.61615 18.6986 5.88709 22.9821C5.17408 27.171 5.73285 31.4166 7.50296 35.2599C7.67759 35.6388 8.05221 35.8622 8.44381 35.8622C8.58873 35.8622 8.73593 35.8317 8.8763 35.7671C9.39563 35.5279 9.62264 34.9131 9.38342 34.3938C6.09899 27.2627 7.62376 18.74 13.1777 13.186C19.0122 7.35175 28.1569 6.00274 35.4167 9.90589C35.9202 10.1766 36.548 9.98787 36.8186 9.48438C37.0894 8.98077 36.9007 8.35306 36.3972 8.08237Z" fill="#F7AB3A" stroke="#F7AB3A"/>
<path d="M13.2223 39.8738L13.1783 39.8298C12.774 39.4256 12.1187 39.4256 11.7143 39.8298C11.3101 40.234 11.3101 40.8895 11.7143 41.2938L11.7584 41.3378C11.9606 41.54 12.2255 41.641 12.4904 41.641C12.7552 41.641 13.0201 41.54 13.2223 41.3378C13.6265 40.9336 13.6265 40.2781 13.2223 39.8738Z" fill="#F7AB3A"/>
<path d="M44.8511 16.4735C44.5764 15.9719 43.9471 15.7881 43.446 16.0625C42.9445 16.337 42.7605 16.9661 43.0349 17.4675C47.0231 24.7539 45.7017 33.9496 39.8217 39.8298C34.2841 45.3673 26.075 46.9087 18.9083 43.7566C18.3848 43.5265 17.7742 43.7641 17.5439 44.2875C17.3137 44.8107 17.5514 45.4216 18.0747 45.6518C20.7431 46.8254 23.5968 47.4214 26.4802 47.4214C27.7185 47.4214 28.9623 47.3114 30.1994 47.0902C34.414 46.3363 38.2475 44.332 41.2858 41.2938C44.5474 38.0321 46.5991 33.8982 47.2188 29.3389C47.8182 24.9275 46.9774 20.3586 44.8511 16.4735Z" fill="#F7AB3A" stroke="#F7AB3A"/>
<path d="M41.3128 11.7491L41.2857 11.7221C40.8814 11.3179 40.2262 11.3179 39.8217 11.7221C39.4175 12.1263 39.4175 12.7818 39.8217 13.1861L39.8488 13.2131C40.051 13.4153 40.3159 13.5163 40.5808 13.5163C40.8457 13.5163 41.1106 13.4153 41.3128 13.2131C41.717 12.8089 41.717 12.1535 41.3128 11.7491Z" fill="#F7AB3A"/>
<path d="M39.6467 27.5431C39.6467 26.3695 38.9451 25.3572 37.9395 24.9019C38.0755 24.5664 38.1511 24.2002 38.1511 23.8166C38.1511 22.2184 36.8508 20.9181 35.2527 20.9181H30.7511L31.0466 20.0404C31.5135 18.6546 31.4019 17.1753 30.7327 15.8751C30.0634 14.5748 28.9243 13.6246 27.5253 13.1992C26.9983 13.0389 26.4381 13.3195 26.2507 13.8374L24.6662 18.2167C24.2548 19.3536 23.4435 20.2982 22.3816 20.8764L21.1232 21.5617C20.7051 21.1635 20.14 20.9181 19.5184 20.9181H15.0615C13.7773 20.9181 12.7324 21.9629 12.7324 23.2472V35.5655C12.7324 36.8499 13.7773 37.8946 15.0615 37.8946H19.5184C20.2308 37.8947 20.869 37.573 21.2967 37.0675L21.7696 37.253C22.8554 37.6789 23.9974 37.8948 25.1639 37.8948H33.9534C35.5515 37.8948 36.8518 36.5946 36.8518 34.9964C36.8518 34.6058 36.7737 34.2334 36.6331 33.893C37.6172 33.4292 38.3002 32.428 38.3002 31.2699C38.3002 30.8633 38.2157 30.4762 38.0638 30.1247C39.0023 29.6442 39.6467 28.6678 39.6467 27.5431ZM19.7773 35.5655C19.7773 35.7082 19.6612 35.8243 19.5185 35.8243H15.0616C14.9189 35.8243 14.8028 35.7083 14.8028 35.5655V23.2472C14.8028 23.1046 14.9189 22.9884 15.0616 22.9884H19.5185C19.6236 22.9884 19.7139 23.0517 19.7544 23.142C19.76 23.1692 19.767 23.1962 19.7749 23.2231C19.7756 23.2312 19.7773 23.2389 19.7773 23.2472V35.5655ZM36.7483 28.3714H32.09C31.5184 28.3714 31.0548 28.8349 31.0548 29.4066C31.0548 29.9783 31.5184 30.4417 32.09 30.4417H35.4016C35.8582 30.4417 36.2298 30.8133 36.2298 31.2699C36.2298 31.7265 35.8582 32.098 35.4016 32.098H32.09C31.5184 32.098 31.0548 32.5614 31.0548 33.1331C31.0548 33.7049 31.5184 34.1683 32.09 34.1683H33.9533C34.4099 34.1683 34.7814 34.5398 34.7814 34.9964C34.7814 35.453 34.4099 35.8245 33.9533 35.8245H33.1872H25.1638C24.2571 35.8245 23.3694 35.6566 22.5255 35.3257L21.8475 35.0598V23.5246L23.3717 22.6947C24.8783 21.8743 26.0295 20.5342 26.6131 18.9211L27.8137 15.603C28.265 15.908 28.6351 16.3233 28.8921 16.8227C29.3029 17.6208 29.3714 18.5288 29.0848 19.3796L28.3293 21.6229C28.2229 21.9388 28.2751 22.2865 28.4695 22.5572C28.6639 22.8279 28.9769 22.9884 29.3102 22.9884H35.2527C35.7093 22.9884 36.0808 23.36 36.0808 23.8166C36.0808 24.2732 35.7093 24.6447 35.2527 24.6447H32.09C31.5184 24.6447 31.0548 25.1081 31.0548 25.6798C31.0548 26.2515 31.5184 26.715 32.09 26.715L36.7483 26.7151C37.2049 26.7151 37.5764 27.0866 37.5764 27.5432C37.5764 27.9998 37.2049 28.3714 36.7483 28.3714Z" fill="#F7AB3A"/>
</g>
<defs>
<clipPath id="clip0_1_1549">
<rect width="53" height="53" fill="white" transform="translate(0 0.0078125)"/>
</clipPath>
</defs>
</svg>
