<svg width="53" height="54" viewBox="0 0 53 54" fill="none" xmlns="http://www.w3.org/2000/svg">
<path d="M44.8689 8.80147L27.2815 2.80791C27.0693 2.73545 26.7847 2.69922 26.5 2.69922C26.2153 2.69922 25.9307 2.73545 25.7185 2.80791L8.13115 8.80147C7.70156 8.94639 7.34961 9.44326 7.34961 9.89873V34.8667C7.34961 35.3222 7.64463 35.9226 8.00176 36.2072L25.8427 50.1094C26.0238 50.2491 26.2567 50.3216 26.4948 50.3216C26.7329 50.3216 26.971 50.2491 27.147 50.1094L44.9879 36.2072C45.345 35.9277 45.64 35.3273 45.64 34.8667V9.89873C45.6504 9.44326 45.2984 8.95156 44.8689 8.80147ZM41.9238 33.873L26.5 45.8911L11.0762 33.873V11.7413L26.5 6.48272L41.9238 11.7413V33.873ZM20.9205 23.4696C20.7652 23.2574 20.5168 23.128 20.2477 23.128H17.3906C17.0542 23.128 16.8575 23.511 17.0542 23.7854L23.5964 32.7912C23.6737 32.8971 23.775 32.9832 23.8919 33.0426C24.0088 33.102 24.1381 33.1329 24.2692 33.1329C24.4004 33.1329 24.5296 33.102 24.6466 33.0426C24.7635 32.9832 24.8647 32.8971 24.9421 32.7912L35.9458 17.6417C36.1425 17.3674 35.9458 16.9844 35.6094 16.9844H32.7523C32.4884 16.9844 32.2348 17.1138 32.0795 17.326L24.2692 28.0813L20.9205 23.4696Z" fill="#F7AB3A"/>
</svg>
