<svg width="97" height="111" viewBox="0 0 97 111" fill="none" xmlns="http://www.w3.org/2000/svg">
<path opacity="0.8" fill-rule="evenodd" clip-rule="evenodd" d="M94.8889 3.94182C96.0303 3.94182 96.9555 3.05941 96.9555 1.97091C96.9555 0.882404 96.0303 0 94.8889 0C93.7476 0 92.8224 0.882404 92.8224 1.97091C92.8224 3.05941 93.7476 3.94182 94.8889 3.94182ZM41.262 19.7091C41.262 20.7976 40.3368 21.68 39.1955 21.68C38.0541 21.68 37.1289 20.7976 37.1289 19.7091C37.1289 18.6206 38.0541 17.7382 39.1955 17.7382C40.3368 17.7382 41.262 18.6206 41.262 19.7091ZM94.8889 21.6801C96.0303 21.6801 96.9555 20.7977 96.9555 19.7092C96.9555 18.6207 96.0303 17.7383 94.8889 17.7383C93.7476 17.7383 92.8224 18.6207 92.8224 19.7092C92.8224 20.7977 93.7476 21.6801 94.8889 21.6801ZM4.13309 37.4473C4.13309 38.5358 3.20787 39.4182 2.06655 39.4182C0.925224 39.4182 0 38.5358 0 37.4473C0 36.3588 0.925224 35.4764 2.06655 35.4764C3.20787 35.4764 4.13309 36.3588 4.13309 37.4473ZM41.262 37.4473C41.262 38.5358 40.3368 39.4182 39.1955 39.4182C38.0541 39.4182 37.1289 38.5358 37.1289 37.4473C37.1289 36.3588 38.0541 35.4764 39.1955 35.4764C40.3368 35.4764 41.262 36.3588 41.262 37.4473ZM94.8889 39.4184C96.0303 39.4184 96.9555 38.536 96.9555 37.4475C96.9555 36.359 96.0303 35.4766 94.8889 35.4766C93.7476 35.4766 92.8224 36.359 92.8224 37.4475C92.8224 38.536 93.7476 39.4184 94.8889 39.4184ZM94.8889 57.1567C96.0303 57.1567 96.9555 56.2743 96.9555 55.1858C96.9555 54.0973 96.0303 53.2148 94.8889 53.2148C93.7476 53.2148 92.8224 54.0973 92.8224 55.1858C92.8224 56.2743 93.7476 57.1567 94.8889 57.1567ZM94.8889 74.8949C96.0303 74.8949 96.9555 74.0125 96.9555 72.924C96.9555 71.8355 96.0303 70.9531 94.8889 70.9531C93.7476 70.9531 92.8224 71.8355 92.8224 72.924C92.8224 74.0125 93.7476 74.8949 94.8889 74.8949ZM94.8889 92.6332C96.0303 92.6332 96.9555 91.7508 96.9555 90.6623C96.9555 89.5738 96.0303 88.6914 94.8889 88.6914C93.7476 88.6914 92.8224 89.5738 92.8224 90.6623C92.8224 91.7508 93.7476 92.6332 94.8889 92.6332ZM4.13322 108.401C4.13322 109.489 3.20799 110.372 2.06667 110.372C0.925349 110.372 0.000124811 109.489 0.000124811 108.401C0.000124811 107.312 0.925349 106.43 2.06667 106.43C3.20799 106.43 4.13322 107.312 4.13322 108.401ZM20.6311 110.372C21.7724 110.372 22.6977 109.489 22.6977 108.401C22.6977 107.312 21.7724 106.43 20.6311 106.43C19.4898 106.43 18.5646 107.312 18.5646 108.401C18.5646 109.489 19.4898 110.372 20.6311 110.372ZM41.2621 108.401C41.2621 109.489 40.3369 110.372 39.1956 110.372C38.0543 110.372 37.129 109.489 37.129 108.401C37.129 107.312 38.0543 106.43 39.1956 106.43C40.3369 106.43 41.2621 107.312 41.2621 108.401ZM57.76 110.372C58.9014 110.372 59.8266 109.489 59.8266 108.401C59.8266 107.312 58.9014 106.43 57.76 106.43C56.6187 106.43 55.6935 107.312 55.6935 108.401C55.6935 109.489 56.6187 110.372 57.76 110.372ZM78.391 108.401C78.391 109.489 77.4658 110.372 76.3245 110.372C75.1832 110.372 74.2579 109.489 74.2579 108.401C74.2579 107.312 75.1832 106.43 76.3245 106.43C77.4658 106.43 78.391 107.312 78.391 108.401ZM96.9555 108.401C96.9555 109.489 96.0303 110.372 94.8889 110.372C93.7476 110.372 92.8224 109.489 92.8224 108.401C92.8224 107.312 93.7476 106.43 94.8889 106.43C96.0303 106.43 96.9555 107.312 96.9555 108.401ZM78.391 90.6623C78.391 91.7508 77.4658 92.6332 76.3245 92.6332C75.1832 92.6332 74.2579 91.7508 74.2579 90.6623C74.2579 89.5738 75.1832 88.6914 76.3245 88.6914C77.4658 88.6914 78.391 89.5738 78.391 90.6623ZM57.76 92.6332C58.9014 92.6332 59.8266 91.7508 59.8266 90.6623C59.8266 89.5738 58.9014 88.6914 57.76 88.6914C56.6187 88.6914 55.6935 89.5738 55.6935 90.6623C55.6935 91.7508 56.6187 92.6332 57.76 92.6332ZM41.2621 90.6623C41.2621 91.7508 40.3369 92.6332 39.1956 92.6332C38.0543 92.6332 37.129 91.7508 37.129 90.6623C37.129 89.5738 38.0543 88.6914 39.1956 88.6914C40.3369 88.6914 41.2621 89.5738 41.2621 90.6623ZM20.6311 92.6332C21.7724 92.6332 22.6977 91.7508 22.6977 90.6623C22.6977 89.5738 21.7724 88.6914 20.6311 88.6914C19.4898 88.6914 18.5646 89.5738 18.5646 90.6623C18.5646 91.7508 19.4898 92.6332 20.6311 92.6332ZM4.13322 90.6623C4.13322 91.7508 3.20799 92.6332 2.06667 92.6332C0.925349 92.6332 0.000124811 91.7508 0.000124811 90.6623C0.000124811 89.5738 0.925349 88.6914 2.06667 88.6914C3.20799 88.6914 4.13322 89.5738 4.13322 90.6623ZM78.391 72.924C78.391 74.0125 77.4658 74.8949 76.3245 74.8949C75.1832 74.8949 74.2579 74.0125 74.2579 72.924C74.2579 71.8355 75.1832 70.9531 76.3245 70.9531C77.4658 70.9531 78.391 71.8355 78.391 72.924ZM57.76 74.8949C58.9014 74.8949 59.8266 74.0125 59.8266 72.924C59.8266 71.8355 58.9014 70.9531 57.76 70.9531C56.6187 70.9531 55.6935 71.8355 55.6935 72.924C55.6935 74.0125 56.6187 74.8949 57.76 74.8949ZM41.2621 72.924C41.2621 74.0125 40.3369 74.8949 39.1956 74.8949C38.0543 74.8949 37.129 74.0125 37.129 72.924C37.129 71.8355 38.0543 70.9531 39.1956 70.9531C40.3369 70.9531 41.2621 71.8355 41.2621 72.924ZM20.6311 74.8949C21.7724 74.8949 22.6977 74.0125 22.6977 72.924C22.6977 71.8355 21.7724 70.9531 20.6311 70.9531C19.4898 70.9531 18.5646 71.8355 18.5646 72.924C18.5646 74.0125 19.4898 74.8949 20.6311 74.8949ZM4.13322 72.924C4.13322 74.0125 3.20799 74.8949 2.06667 74.8949C0.925349 74.8949 0.000124811 74.0125 0.000124811 72.924C0.000124811 71.8355 0.925349 70.9531 2.06667 70.9531C3.20799 70.9531 4.13322 71.8355 4.13322 72.924ZM78.391 55.1858C78.391 56.2743 77.4658 57.1567 76.3245 57.1567C75.1832 57.1567 74.2579 56.2743 74.2579 55.1858C74.2579 54.0973 75.1832 53.2148 76.3245 53.2148C77.4658 53.2148 78.391 54.0973 78.391 55.1858ZM57.76 57.1567C58.9014 57.1567 59.8266 56.2743 59.8266 55.1858C59.8266 54.0973 58.9014 53.2148 57.76 53.2148C56.6187 53.2148 55.6935 54.0973 55.6935 55.1858C55.6935 56.2743 56.6187 57.1567 57.76 57.1567ZM41.2621 55.1858C41.2621 56.2743 40.3369 57.1567 39.1956 57.1567C38.0543 57.1567 37.129 56.2743 37.129 55.1858C37.129 54.0973 38.0543 53.2148 39.1956 53.2148C40.3369 53.2148 41.2621 54.0973 41.2621 55.1858ZM20.6311 57.1567C21.7724 57.1567 22.6977 56.2743 22.6977 55.1858C22.6977 54.0973 21.7724 53.2148 20.6311 53.2148C19.4898 53.2148 18.5646 54.0973 18.5646 55.1858C18.5646 56.2743 19.4898 57.1567 20.6311 57.1567ZM4.13322 55.1858C4.13322 56.2743 3.20799 57.1567 2.06667 57.1567C0.925349 57.1567 0.000124811 56.2743 0.000124811 55.1858C0.000124811 54.0973 0.925349 53.2148 2.06667 53.2148C3.20799 53.2148 4.13322 54.0973 4.13322 55.1858ZM78.391 37.4475C78.391 38.536 77.4658 39.4184 76.3245 39.4184C75.1832 39.4184 74.2579 38.536 74.2579 37.4475C74.2579 36.359 75.1832 35.4766 76.3245 35.4766C77.4658 35.4766 78.391 36.359 78.391 37.4475ZM57.76 39.4184C58.9014 39.4184 59.8266 38.536 59.8266 37.4475C59.8266 36.359 58.9014 35.4766 57.76 35.4766C56.6187 35.4766 55.6935 36.359 55.6935 37.4475C55.6935 38.536 56.6187 39.4184 57.76 39.4184ZM20.631 39.4182C21.7723 39.4182 22.6975 38.5358 22.6975 37.4473C22.6975 36.3588 21.7723 35.4764 20.631 35.4764C19.4897 35.4764 18.5645 36.3588 18.5645 37.4473C18.5645 38.5358 19.4897 39.4182 20.631 39.4182ZM78.391 19.7092C78.391 20.7977 77.4658 21.6801 76.3245 21.6801C75.1832 21.6801 74.2579 20.7977 74.2579 19.7092C74.2579 18.6207 75.1832 17.7383 76.3245 17.7383C77.4658 17.7383 78.391 18.6207 78.391 19.7092ZM57.76 21.6801C58.9014 21.6801 59.8266 20.7977 59.8266 19.7092C59.8266 18.6207 58.9014 17.7383 57.76 17.7383C56.6187 17.7383 55.6935 18.6207 55.6935 19.7092C55.6935 20.7977 56.6187 21.6801 57.76 21.6801ZM20.631 21.68C21.7723 21.68 22.6975 20.7976 22.6975 19.7091C22.6975 18.6206 21.7723 17.7382 20.631 17.7382C19.4897 17.7382 18.5645 18.6206 18.5645 19.7091C18.5645 20.7976 19.4897 21.68 20.631 21.68ZM4.13309 19.7091C4.13309 20.7976 3.20787 21.68 2.06655 21.68C0.925224 21.68 0 20.7976 0 19.7091C0 18.6206 0.925224 17.7382 2.06655 17.7382C3.20787 17.7382 4.13309 18.6206 4.13309 19.7091ZM78.391 1.97091C78.391 3.05941 77.4658 3.94182 76.3245 3.94182C75.1832 3.94182 74.2579 3.05941 74.2579 1.97091C74.2579 0.882404 75.1832 0 76.3245 0C77.4658 0 78.391 0.882404 78.391 1.97091ZM57.76 3.94182C58.9014 3.94182 59.8266 3.05941 59.8266 1.97091C59.8266 0.882404 58.9014 0 57.76 0C56.6187 0 55.6935 0.882404 55.6935 1.97091C55.6935 3.05941 56.6187 3.94182 57.76 3.94182ZM41.262 1.97091C41.262 3.05941 40.3368 3.94182 39.1955 3.94182C38.0541 3.94182 37.1289 3.05941 37.1289 1.97091C37.1289 0.882404 38.0541 0 39.1955 0C40.3368 0 41.262 0.882404 41.262 1.97091ZM20.631 3.94182C21.7723 3.94182 22.6975 3.05941 22.6975 1.97091C22.6975 0.882404 21.7723 0 20.631 0C19.4897 0 18.5645 0.882404 18.5645 1.97091C18.5645 3.05941 19.4897 3.94182 20.631 3.94182ZM4.13322 1.97091C4.13322 3.05941 3.20799 3.94182 2.06667 3.94182C0.925349 3.94182 0.000124811 3.05941 0.000124811 1.97091C0.000124811 0.882404 0.925349 0 2.06667 0C3.20799 0 4.13322 0.882404 4.13322 1.97091Z" fill="#F7AB3A"/>
</svg>
