<svg width="89" height="18" viewBox="0 0 89 18" fill="none" xmlns="http://www.w3.org/2000/svg">
<path fill-rule="evenodd" clip-rule="evenodd" d="M0.256836 17.6236V0.887139H6.69499V17.6236H4.88642V3.31549H2.07248V17.6236H0.256836ZM11.5901 0.511232C10.5344 0.511232 9.70405 1.30547 9.09896 2.89394C8.4935 4.49745 8.19077 6.5993 8.19077 9.19842C8.19077 11.8888 8.48345 14.0283 9.0688 15.6168C9.6441 17.2058 10.4845 18 11.5897 18C12.7154 18 13.596 17.1676 14.2312 15.5029C14.8363 13.9144 15.1391 11.8056 15.1391 9.17533C15.1391 6.57621 14.8263 4.48188 14.2011 2.89394C13.5759 1.30547 12.7057 0.511232 11.5901 0.511232ZM9.91667 9.22152C9.91667 7.38172 10.0593 5.8883 10.3445 4.74071C10.6197 3.58561 11.0349 3.00779 11.5901 3.00779C12.2052 3.00779 12.6506 3.59313 12.9257 4.76381C13.1708 5.78949 13.2933 7.26036 13.2933 9.17533C13.2933 11.0226 13.1506 12.5386 12.8654 13.7243C12.5806 14.91 12.1553 15.5029 11.5901 15.5029C11.0446 15.5029 10.6294 14.9025 10.3445 13.7018C10.0593 12.501 9.91667 11.0071 9.91667 9.22098V9.22152ZM20.567 0.887139H22.383V17.6236H20.567V9.38047H18.9238C18.1433 9.38047 17.4831 9.01584 16.9428 8.28658C16.388 7.57236 16.1102 6.67502 16.1102 5.59617V0.887139H17.9109V5.27665C17.9109 5.72505 18.001 6.08216 18.1809 6.34798C18.4311 6.70563 18.8065 6.88392 19.3065 6.88392H20.567V0.887139ZM27.0532 17.6236H25.2446V3.36114H23.5187V0.887139H28.794V3.36114H27.0532V17.6236ZM30.1922 0.887139H33.1264C33.9918 0.887139 34.6743 1.18786 35.1744 1.7877C35.8 2.54059 36.1128 3.7263 36.1128 5.34485L37.0504 17.6236H35.2347L34.6643 9.28918H31.8205L31.6254 17.6236H29.8098L30.1926 0.887139H30.1922ZM31.8507 6.83827H34.4543C34.3694 5.54623 34.2241 4.65694 34.0193 4.17041C33.774 3.61568 33.364 3.33805 32.7887 3.33805H31.9181L31.8507 6.83827ZM43.5693 17.3293V0.592858H45.6177C46.9884 0.592858 47.9762 1.45529 48.5817 3.18124C48.972 4.28265 49.1671 5.56019 49.1671 7.01119C49.1671 9.09424 48.9269 10.6747 48.4465 11.754C48.0265 12.6815 47.4937 13.1449 46.8484 13.1449C46.333 13.1449 45.8653 12.8522 45.4453 12.2674V17.3293H43.5693ZM45.4304 2.873V8.03741C45.4304 8.84292 45.5179 9.46639 45.6929 9.90728C45.8579 10.3406 46.063 10.5571 46.3081 10.5571C46.5631 10.5571 46.7832 10.3122 46.9683 9.82135C47.1533 9.3316 47.246 8.63456 47.246 7.7297C47.246 6.04994 47.1023 4.81697 46.8145 4.02971C46.527 3.24353 46.1282 2.85044 45.6177 2.85044C45.5556 2.86294 45.4931 2.87047 45.4304 2.873ZM53.4921 0.216415C52.4364 0.216415 51.606 1.01119 51.001 2.59912C50.3955 4.20317 50.0928 6.30448 50.0928 8.90361C50.0928 11.5946 50.3854 13.734 50.9708 15.3225C51.5461 16.9109 52.3865 17.7052 53.4917 17.7052C54.6173 17.7052 55.4976 16.8728 56.1332 15.2081C56.7383 13.6202 57.041 11.5108 57.041 8.88105C57.041 6.28193 56.7283 4.18759 56.1031 2.59912C55.4775 1.01065 54.6073 0.216415 53.4921 0.216415ZM51.8187 8.9267C51.8187 7.08744 51.9613 5.59402 52.2461 4.44643C52.5217 3.29079 52.9365 2.71351 53.4921 2.71351C54.1072 2.71351 54.5525 3.29885 54.8274 4.46952C55.0727 5.49521 55.1952 6.96608 55.1952 8.88105C55.1952 10.7284 55.0526 12.2443 54.7674 13.4301C54.4822 14.6158 54.0573 15.2086 53.4921 15.2086C52.9465 15.2086 52.5314 14.6083 52.2461 13.4075C51.9613 12.2062 51.8187 10.7128 51.8187 8.9267ZM60.1052 9.01799C60.1052 10.789 60.443 12.2368 61.118 13.3619C61.8438 14.5626 62.8615 15.163 64.1722 15.163V17.8427C62.2664 17.8427 60.7706 17.0022 59.6852 15.3225C58.65 13.719 58.1321 11.6252 58.1321 9.04054C58.1321 6.36517 58.6098 4.26385 59.5653 2.73606C60.6105 1.0563 62.1365 0.216415 64.1424 0.216415V2.89609C62.8019 2.89609 61.7786 3.48841 61.0734 4.67413C60.4281 5.74599 60.1052 7.19377 60.1052 9.01799ZM67.1615 9.01799C67.1615 10.789 67.4992 12.2368 68.1743 13.3619C68.9001 14.5626 69.9177 15.163 71.2284 15.163V17.8427C69.3227 17.8427 67.8269 17.0022 66.7415 15.3225C65.7059 13.719 65.1883 11.6252 65.1883 9.04054C65.1883 6.36517 65.6661 4.26385 66.6212 2.73606C67.6668 1.0563 69.1924 0.216415 71.1983 0.216415V2.89609C69.8578 2.89609 68.8349 3.48841 68.1296 4.67413C67.4843 5.74599 67.1615 7.19377 67.1615 9.01799ZM79.3355 0L79.8084 17.3293H77.9623L77.6547 5.96241L74.5559 10.4432L74.5708 17.3293H72.725V0.592858H74.5708V6.77222L79.3355 0ZM88.2827 0L88.7556 17.3293H86.9094L86.6018 5.96241L83.503 10.4432L83.5179 17.3293H81.6721V0.592858H83.5179V6.77222L88.2823 0H88.2827Z" fill="white"/>
</svg>
