<svg width="24" height="24" viewBox="0 0 24 24" fill="none" xmlns="http://www.w3.org/2000/svg">
<path d="M20.9438 10.1737C20.8873 10.0657 20.7754 9.99795 20.6534 9.99805H3.34753C3.2256 9.99805 3.11381 10.0657 3.05728 10.1737L0.892213 14.2959C0.807932 14.4563 0.86962 14.6547 1.03007 14.739C1.07714 14.7638 1.12949 14.7767 1.18265 14.7767H3.02015V22.0142C3.02024 22.1953 3.1671 22.3422 3.34828 22.3423H20.6532C20.8344 22.3423 20.9813 22.1954 20.9813 22.0142V14.7767H22.8188C23.0001 14.7767 23.147 14.6297 23.1469 14.4485C23.1469 14.3953 23.134 14.343 23.1093 14.2959L20.9438 10.1737ZM3.5459 10.6543H11.4563L9.63759 14.1204H1.72509L3.5459 10.6543ZM3.67509 14.7767H9.83446C9.95648 14.7767 10.0684 14.709 10.1251 14.601L11.6716 11.6572V21.6872H3.67509V14.7767ZM20.3251 21.6866H12.3282V11.6567L13.8751 14.601C13.9317 14.709 14.0436 14.7767 14.1655 14.7767H20.3251V21.6866ZM14.3626 14.1204L12.5438 10.6543H20.4552L22.2751 14.1204H14.3626Z" fill="#F7AB3A" stroke="#F7AB3A" stroke-width="0.5"/>
<path d="M12.0005 8.97411C14.0211 8.97411 15.6592 7.33607 15.6592 5.31543C15.6592 3.29479 14.0211 1.65674 12.0005 1.65674C9.97984 1.65674 8.3418 3.29479 8.3418 5.31543V5.31561C8.34409 7.33527 9.98083 8.97196 12.0005 8.97411ZM12.0005 2.31299C13.6587 2.31299 15.0029 3.65722 15.0029 5.31543C15.0029 6.97363 13.6587 8.31786 12.0005 8.31786C10.3424 8.31786 8.99814 6.97372 8.99805 5.31561C8.99992 3.65816 10.343 2.31496 12.0005 2.31299Z" fill="#F7AB3A" stroke="#F7AB3A" stroke-width="0.5"/>
<path d="M12.3338 6.22933H10.8564C10.6752 6.22933 10.5283 6.37623 10.5283 6.55745C10.5283 6.73867 10.6752 6.88558 10.8564 6.88558H12.333C13.0801 6.87676 13.6786 6.26401 13.6698 5.51692C13.6611 4.78225 13.0677 4.18876 12.333 4.18014H11.6486L11.8766 3.95214C12.0071 3.82642 12.011 3.61872 11.8853 3.48817C11.7596 3.35767 11.5519 3.35378 11.4213 3.4795C11.4186 3.48212 11.4159 3.4848 11.4133 3.48751L10.6258 4.27501C10.4976 4.40298 10.4975 4.61064 10.6255 4.7388C10.6256 4.73889 10.6257 4.73898 10.6258 4.73908L11.4133 5.52658C11.5414 5.65473 11.7492 5.65473 11.8773 5.52658C12.0055 5.39842 12.0055 5.19067 11.8773 5.06251L11.6491 4.83433H12.3337C12.7184 4.84065 13.0251 5.15758 13.0187 5.54223C13.0126 5.91798 12.7095 6.22112 12.3337 6.22726L12.3338 6.22933Z" fill="#F7AB3A" stroke="#F7AB3A" stroke-width="0.5"/>
</svg>
