<svg width="71" height="32" viewBox="0 0 71 32" fill="none" xmlns="http://www.w3.org/2000/svg">
<path fill-rule="evenodd" clip-rule="evenodd" d="M16.3344 21.0452C14.2625 21.0452 13.3195 21.6563 12.9477 22.9354L11.7656 27H52.0348C54.1067 27 55.0497 26.3889 55.4216 25.1098L56.6036 21.0452H16.3344ZM21.1821 15.3747H19.1899C16.0821 15.3747 18.3399 8.31137 20.9563 8.31137H24.104C24.6087 8.31137 25.4986 8.41085 25.9369 7.07494L26.6142 5H22.2978C19.9602 5 18.1407 5.88114 16.8258 7.35917C14.5547 9.88889 13.7844 13.8398 14.3289 15.73C14.8469 17.478 16.2547 18.6292 18.4594 18.6576L20.1727 18.6718H22.2845L22.8025 17.009C23.1876 15.8295 22.3243 15.3747 21.1821 15.3747ZM45.434 12.447L46.0847 10.1873H39.1386C37.9831 10.1873 37.4651 10.5284 37.2659 11.239L36.6151 13.4987H43.5613C44.7168 13.4987 45.2347 13.1576 45.434 12.447ZM35.5792 16.4264L34.9284 18.686H41.8745C43.0167 18.686 43.548 18.345 43.7472 17.6344L44.398 15.3747H37.4518C36.3096 15.3747 35.7917 15.7158 35.5792 16.4264ZM47.0543 7.2739L47.7051 5.01421H40.7589C39.6034 5.01421 39.0854 5.3553 38.8862 6.06589L38.2354 8.32558H45.1816C46.3238 8.32558 46.8418 7.9845 47.0543 7.2739ZM36.562 7.72868C36.2698 5.62532 35.2206 5.01421 32.6705 5.01421H28.022L25.3126 13.4987H27.0259C28.0486 13.4987 28.5666 13.5129 29.1111 11.9496L30.24 8.31137H31.9666C33.4409 8.31137 33.1088 10.2868 32.3651 12.2054C31.701 13.8966 30.5455 15.3889 29.151 15.3889H26.2689C25.1134 15.3889 24.5822 15.73 24.3697 16.4406L23.6525 18.7003H25.7642L27.8361 18.686C29.6689 18.6718 31.1697 18.5297 32.9229 16.8385C34.7823 15.0336 36.9339 10.4005 36.562 7.72868ZM59.9107 5H55.8864L52.1012 9.3062C51.6629 9.80362 51.2114 10.301 50.7731 10.8837H50.7332L52.6192 5H49.3387L44.916 18.686H48.1965L49.6043 14.3798L51.0653 13.0581L52.2207 16.9522C52.5793 18.1602 52.9512 18.686 53.7481 18.686H56.2583L53.6817 11.0401L59.9107 5Z" fill="white"/>
<path d="M18.0147 24.0725V25.2174H17.4297V22.0435H18.5864C18.9188 22.0435 19.1848 22.1304 19.3709 22.3188C19.5571 22.5072 19.6634 22.7536 19.6634 23.058C19.6634 23.3623 19.5704 23.6087 19.3709 23.7971C19.1848 23.9855 18.9188 24.0725 18.5864 24.0725H18.0147ZM18.0147 23.5797H18.5864C18.746 23.5797 18.8657 23.5362 18.9587 23.4348C19.0385 23.3333 19.0784 23.2174 19.0784 23.0725C19.0784 22.913 19.0385 22.7971 18.9587 22.6957C18.879 22.5942 18.746 22.5507 18.5864 22.5507H18.0147V23.5797ZM21.3254 24.5362H20.3016L20.1022 25.2174H19.5172L20.5144 22.0435H21.1127L22.1099 25.2174H21.5249L21.3254 24.5362ZM20.4479 24.029H21.1792L20.8202 22.7826H20.8069L20.4479 24.029ZM24.2506 22.5362H22.9608V23.1594H23.4661C23.7985 23.1594 24.0644 23.2609 24.2639 23.4493C24.4633 23.6377 24.5564 23.8841 24.5564 24.1884C24.5564 24.4928 24.4633 24.7391 24.2639 24.9275C24.0644 25.1159 23.7985 25.2174 23.4661 25.2174H22.3492V22.0435H24.2506V22.5362ZM22.9608 23.6522V24.7246H23.4661C23.6257 24.7246 23.7586 24.6667 23.8384 24.5652C23.9182 24.4638 23.9713 24.3333 23.9713 24.1739C23.9713 24.029 23.9315 23.8985 23.8384 23.7971C23.7453 23.6957 23.6257 23.6377 23.4661 23.6377H22.9608V23.6522ZM27.2954 23.913C27.2954 24.3043 27.189 24.6232 26.963 24.8841C26.7369 25.1449 26.4444 25.2609 26.0854 25.2609C25.7264 25.2609 25.4339 25.1304 25.2079 24.8841C24.9819 24.6377 24.8755 24.3043 24.8755 23.913V23.3478C24.8755 22.9565 24.9819 22.6377 25.2079 22.3768C25.4339 22.1159 25.7264 22 26.0854 22C26.4444 22 26.7369 22.1304 26.963 22.3768C27.189 22.6232 27.3087 22.9565 27.3087 23.3478V23.913H27.2954ZM26.7103 23.3478C26.7103 23.1014 26.6572 22.8986 26.5375 22.7391C26.4178 22.5797 26.2716 22.5072 26.0721 22.5072C25.8727 22.5072 25.7131 22.5797 25.6068 22.7391C25.5004 22.8986 25.4472 23.1014 25.4472 23.3478V23.9275C25.4472 24.1739 25.5004 24.3913 25.6068 24.5362C25.7131 24.6957 25.8727 24.7681 26.0721 24.7681C26.2716 24.7681 26.4311 24.6957 26.5375 24.5362C26.6439 24.3768 26.7103 24.1739 26.7103 23.9275V23.3478ZM29.6887 22.5362H28.8643V25.2174H28.2793V22.5362H27.4549V22.0435H29.6754V22.5362H29.6887ZM31.3773 24.5362H30.3535L30.154 25.2174H29.569L30.5662 22.0435H31.1645L32.1617 25.2174H31.5767L31.3773 24.5362ZM30.4997 24.029H31.231L30.872 22.7826H30.8587L30.4997 24.029ZM34.2359 23.8261H33.026V24.7246H34.4354V25.2174H32.4409V22.0435H34.4354V22.5362H33.026V23.3333H34.2359V23.8261ZM35.5522 22.0435L36.2968 24.3768H36.3101L37.0547 22.0435H37.8126V25.2174H37.2275V24.2754L37.2807 22.8696H37.2674L36.4829 25.2174H36.0974L35.3262 22.8841H35.3129L35.3661 24.2754V25.2174H34.781V22.0435H35.5522ZM39.3815 25.2174V22.0435H40.3654C40.7111 22.0435 40.977 22.1159 41.1632 22.2609C41.3493 22.4058 41.4557 22.6232 41.4557 22.913C41.4557 23.058 41.4158 23.1884 41.3493 23.3043C41.2828 23.4203 41.1765 23.5072 41.0435 23.5652C41.2163 23.6087 41.3493 23.6957 41.4424 23.8261C41.5354 23.9565 41.5753 24.1159 41.5753 24.2899C41.5753 24.5942 41.4823 24.8261 41.2961 24.9855C41.11 25.1449 40.8573 25.2174 40.5117 25.2174H39.3815ZM39.9665 23.3768H40.392C40.5515 23.3768 40.6712 23.3478 40.751 23.2754C40.8308 23.2029 40.8706 23.1014 40.8706 22.971C40.8706 22.8261 40.8308 22.7101 40.7377 22.6522C40.6579 22.5797 40.5249 22.5507 40.3654 22.5507H39.9665V23.3768ZM39.9665 23.8116V24.7246H40.4984C40.6579 24.7246 40.7643 24.6812 40.8573 24.6087C40.9504 24.5362 40.977 24.4203 40.977 24.2899C40.977 24.1304 40.9371 24.0145 40.8706 23.9275C40.8042 23.8406 40.6978 23.8116 40.5382 23.8116H39.9665ZM44.208 24.1304C44.2213 24.4783 44.1282 24.7536 43.9287 24.9565C43.7293 25.1594 43.4634 25.2609 43.1044 25.2609C42.7587 25.2609 42.4662 25.1449 42.2534 24.8986C42.0407 24.6522 41.921 24.3333 41.921 23.9565V23.3333C41.921 22.942 42.0274 22.6377 42.2401 22.3913C42.4529 22.1449 42.7321 22.0145 43.0778 22.0145C43.4368 22.0145 43.716 22.1159 43.9154 22.3188C44.1149 22.5217 44.2213 22.7971 44.208 23.1449V23.1594H43.6362C43.6362 22.9565 43.5963 22.7971 43.5033 22.6812C43.4102 22.5652 43.2639 22.5217 43.0778 22.5217C42.9049 22.5217 42.7587 22.5942 42.6656 22.7536C42.5592 22.913 42.5061 23.1014 42.5061 23.3478V23.9855C42.5061 24.2319 42.5592 24.4203 42.6656 24.5797C42.772 24.7391 42.9182 24.8116 43.1044 24.8116C43.2905 24.8116 43.4235 24.7536 43.5033 24.6522C43.5963 24.5507 43.6362 24.3913 43.6362 24.1739H44.208V24.1304ZM46.4151 23.8261H45.2052V24.7246H46.6145V25.2174H44.6201V22.0435H46.6145V22.5362H45.2052V23.3333H46.4151V23.8261ZM48.8749 22.5362H47.5586V25.2174H46.9735V22.0435H48.8749V22.5362ZM51.574 26H51.0421V25.2174H49.2605V26H48.7286L48.6887 24.7246H48.9148C49.0211 24.6232 49.1142 24.4783 49.194 24.2609C49.2738 24.058 49.3136 23.7391 49.3269 23.3333L49.4067 22.029H51.2948V24.7101H51.6405L51.574 26ZM49.8854 23.3478C49.8721 23.6667 49.8322 23.942 49.779 24.1594C49.7258 24.3913 49.646 24.5797 49.553 24.7246H50.6964V22.5362H49.9386L49.8854 23.3478ZM53.5551 24.5362H52.5313L52.3318 25.2174H51.7468L52.744 22.0435H53.3424L54.3396 25.2174H53.7545L53.5551 24.5362ZM52.6775 24.029H53.4088L53.0498 22.7826H53.0365L52.6775 24.029ZM55.1905 24.1159H54.6055V22.0435H55.1905V24.1159ZM55.1905 25.2174H54.6055V24.6667H55.1905V25.2174Z" fill="#161C24"/>
</svg>
