<svg width="26" height="27" viewBox="0 0 26 27" fill="none" xmlns="http://www.w3.org/2000/svg">
<path d="M25.6128 5.36514C24.7082 5.76598 23.7365 6.03681 22.7149 6.15923C23.769 5.5285 24.5576 4.53581 24.9336 3.36639C23.9432 3.95463 22.8594 4.36869 21.7291 4.59056C20.969 3.779 19.9622 3.24108 18.8651 3.06032C17.768 2.87957 16.6418 3.06608 15.6616 3.59092C14.6813 4.11575 13.9017 4.94953 13.4439 5.96282C12.9861 6.97611 12.8756 8.11221 13.1296 9.19473C11.1229 9.09397 9.15983 8.5724 7.36777 7.66387C5.57572 6.75534 3.99473 5.48015 2.7274 3.92106C2.29406 4.66856 2.0449 5.53523 2.0449 6.45823C2.04441 7.28914 2.24903 8.10732 2.6406 8.84019C3.03217 9.57305 3.59857 10.1979 4.28957 10.6594C3.4882 10.6339 2.70451 10.4174 2.00373 10.0278V10.0928C2.00365 11.2582 2.40677 12.3877 3.14468 13.2897C3.88259 14.1917 4.90985 14.8107 6.05215 15.0415C5.30875 15.2427 4.52935 15.2723 3.77282 15.1281C4.0951 16.1309 4.72289 17.0078 5.5683 17.636C6.4137 18.2642 7.43439 18.6123 8.48748 18.6316C6.6998 20.035 4.49203 20.7962 2.21932 20.7929C1.81673 20.793 1.41448 20.7695 1.01465 20.7225C3.32158 22.2057 6.00702 22.9929 8.74965 22.9899C18.0338 22.9899 23.1092 15.3004 23.1092 8.63139C23.1092 8.41473 23.1038 8.19589 23.0941 7.97923C24.0813 7.26528 24.9335 6.3812 25.6106 5.36839L25.6128 5.36514Z" fill="white"/>
</svg>
