<svg width="26" height="27" viewBox="0 0 26 27" fill="none" xmlns="http://www.w3.org/2000/svg">
<g clip-path="url(#clip0_401_224)">
<path fill-rule="evenodd" clip-rule="evenodd" d="M25.4042 6.46011C25.584 5.86861 25.4042 5.43311 24.5429 5.43311H21.6992C20.9755 5.43311 20.6418 5.80902 20.4609 6.22394C20.4609 6.22394 19.0147 9.68627 16.9661 11.9353C16.3031 12.5874 16.0019 12.7944 15.6401 12.7944C15.4592 12.7944 15.1873 12.5874 15.1873 11.9949V6.46011C15.1873 5.74944 14.9879 5.43311 14.3856 5.43311H9.91358C9.46183 5.43311 9.18992 5.76244 9.18992 6.07552C9.18992 6.74827 10.2148 6.90427 10.3198 8.79794V12.9124C10.3198 13.8149 10.1541 13.9784 9.79225 13.9784C8.82808 13.9784 6.48267 10.4999 5.09058 6.51969C4.82083 5.74511 4.54783 5.43311 3.82092 5.43311H0.975C0.1625 5.43311 0 5.80902 0 6.22394C0 6.96277 0.964167 10.6331 4.49042 15.4875C6.84125 18.8025 10.1508 20.5998 13.1658 20.5998C14.9738 20.5998 15.197 20.2011 15.197 19.5132V17.0074C15.197 16.209 15.3682 16.0498 15.9413 16.0498C16.3638 16.0498 17.0863 16.2578 18.7742 17.8557C20.7025 19.7504 21.0199 20.5998 22.1054 20.5998H24.9492C25.7617 20.5998 26.169 20.2011 25.935 19.4124C25.6772 18.6281 24.7563 17.4895 23.5354 16.1386C22.8724 15.3694 21.8779 14.5407 21.5757 14.1258C21.1543 13.5939 21.2745 13.3566 21.5757 12.8832C21.5757 12.8832 25.0423 8.08836 25.4031 6.46011H25.4042Z" fill="white"/>
</g>
<defs>
<clipPath id="clip0_401_224">
<rect width="26" height="26" fill="white" transform="translate(0 0.0166016)"/>
</clipPath>
</defs>
</svg>
