<svg width="24" height="24" viewBox="0 0 24 24" fill="none" xmlns="http://www.w3.org/2000/svg">
<g clip-path="url(#clip0_30_1728)">
<mask id="path-1-inside-1_30_1728" fill="white">
<path d="M19.4815 13.4811L19.2043 13.2039C19.177 13.1766 19.1706 13.1321 19.1865 13.0939L19.1937 13.0763C19.209 13.0391 19.2519 13.0312 19.285 13.0312H19.6771C21.0527 13.0312 22.1719 11.9022 22.1719 10.5143V9.73572C22.1719 9.06702 21.9097 8.44226 21.4338 7.97681C20.965 7.51813 20.3412 7.26562 19.6771 7.26562H19.2849C19.2695 7.26562 19.2184 7.2334 19.192 7.16968L19.1876 7.15924C19.1704 7.11786 19.177 7.07336 19.2043 7.04608L19.4815 6.76886C19.9526 6.29773 20.2123 5.67114 20.2123 5.00482C20.2123 4.3385 19.9526 3.71191 19.4815 3.24078L18.9309 2.69037C18.4598 2.21906 17.8334 1.95959 17.1669 1.95959C16.5005 1.95959 15.8741 2.21906 15.403 2.69037L15.1256 2.96759C15.0983 2.99487 15.054 3.00146 15.0139 2.9848L14.998 2.97821C14.9608 2.96283 14.9529 2.91998 14.9529 2.88684V2.49463C14.9531 1.11914 13.8241 0 12.4362 0H11.6576C10.2697 0 9.14062 1.11914 9.14062 2.49463V2.88684C9.14062 2.91998 9.13275 2.96283 9.0965 2.97766L9.08112 2.98407C9.03973 3.00128 8.99524 2.99487 8.96796 2.96759L8.69073 2.69019C8.2196 2.21906 7.59302 1.95959 6.9267 1.95959C6.26038 1.95959 5.63379 2.21906 5.16266 2.69019L4.61224 3.24078C4.14093 3.71191 3.88147 4.3385 3.88147 5.00482C3.88147 5.67114 4.14093 6.29773 4.61206 6.76886L4.88947 7.04608C4.91675 7.07336 4.92316 7.11786 4.90668 7.15778L4.8999 7.17371C4.88452 7.21088 4.84186 7.21875 4.80872 7.21875H4.4165C3.04102 7.21875 1.92188 8.34778 1.92188 9.73572V10.5143C1.92188 11.183 2.18408 11.8077 2.65997 12.2732C3.12872 12.7319 3.75256 12.9844 4.4165 12.9844H4.80872C4.8241 12.9844 4.87537 13.0166 4.90155 13.08L4.90594 13.0908C4.92316 13.1321 4.91675 13.1766 4.88947 13.2039L4.61206 13.4811C3.6394 14.4538 3.6394 16.0366 4.61206 17.0092L5.16266 17.5598C6.13531 18.5325 7.71808 18.5325 8.69073 17.5598L8.96796 17.2824C8.99524 17.2551 9.03973 17.2487 9.07965 17.2652L9.09558 17.272C9.13275 17.2872 9.14062 17.33 9.14062 17.3632V17.7552C9.14062 19.1309 10.2697 20.25 11.6576 20.25H12.4362C13.8241 20.25 14.9531 19.1309 14.9531 17.7552V17.3632C14.9531 17.33 14.961 17.2872 14.9982 17.272L15.0126 17.2659C15.054 17.2487 15.0985 17.2551 15.1258 17.2824L15.403 17.5598C16.3757 18.5325 17.9584 18.5325 18.9311 17.5598L19.4817 17.0092C20.4543 16.0366 20.4543 14.4538 19.4815 13.4811ZM17.8786 14.5298L18.1558 14.807C18.3973 15.0485 18.3973 15.4418 18.1558 15.6833L17.6052 16.2339C17.3635 16.4756 16.9704 16.4755 16.7289 16.2339L16.4517 15.9567C15.8857 15.3907 15.0385 15.2249 14.2923 15.5347L14.2824 15.5387C13.5509 15.8408 13.0781 16.5569 13.0781 17.3632V17.7552C13.0781 18.0912 12.7842 18.375 12.4362 18.375H11.6576C11.3097 18.375 11.0156 18.0912 11.0156 17.7552V17.3632C11.0156 16.5569 10.5428 15.8408 9.81134 15.5387L9.80017 15.5341C9.55115 15.4307 9.29059 15.3805 9.03296 15.3805C8.52026 15.3805 8.01892 15.5799 7.64209 15.9565L7.36487 16.2339C7.12335 16.4756 6.73022 16.4755 6.48853 16.2339L5.93793 15.6833C5.69641 15.4418 5.69641 15.0485 5.93793 14.807L6.21533 14.5298C6.78131 13.9638 6.94702 13.1166 6.63647 12.3688L6.63318 12.3605C6.32391 11.6122 5.59094 11.1094 4.80872 11.1094H4.4165C4.06915 11.1094 3.79688 10.8481 3.79688 10.5143V9.73572C3.79688 9.38763 4.08069 9.09375 4.4165 9.09375H4.80872C5.61475 9.09375 6.33087 8.62097 6.63446 7.88599L6.63757 7.8783C6.94702 7.13342 6.78113 6.28619 6.21515 5.72021L5.93793 5.44299C5.82092 5.32599 5.75647 5.17035 5.75647 5.00482C5.75647 4.83929 5.82092 4.68365 5.93793 4.56665L6.48853 4.01605C6.60571 3.89905 6.76117 3.83459 6.9267 3.83459C7.09222 3.83459 7.24786 3.89905 7.36487 4.01605L7.64227 4.29327C8.20825 4.85925 9.0553 5.02515 9.80164 4.71515L9.81134 4.71112C10.5428 4.409 11.0156 3.69287 11.0156 2.88684V2.49463C11.0156 2.15881 11.3095 1.875 11.6576 1.875H12.4362C12.7842 1.875 13.0781 2.15881 13.0781 2.49463V2.88684C13.0781 3.69287 13.5509 4.409 14.2833 4.71149L14.2936 4.7157C15.0385 5.02515 15.8855 4.85944 16.4517 4.29327L16.7289 4.01605C16.8459 3.89905 17.0015 3.83459 17.1671 3.83459C17.3326 3.83459 17.4882 3.89905 17.6052 4.01605L18.1558 4.56665C18.2728 4.68365 18.3373 4.83929 18.3373 5.00482C18.3373 5.17035 18.2728 5.32599 18.1558 5.44299L17.8784 5.72021C17.3124 6.28619 17.1467 7.13342 17.4565 7.87958L17.4606 7.88947C17.7697 8.63782 18.5028 9.14062 19.285 9.14062H19.6772C20.0246 9.14062 20.2969 9.40192 20.2969 9.73572V10.5143C20.2969 10.8622 20.0131 11.1562 19.6772 11.1562H19.285C18.479 11.1562 17.7629 11.629 17.4611 12.3598L17.4562 12.3717C17.1467 13.1166 17.3124 13.9638 17.8786 14.5298ZM24 18.5156V20.25C24 22.3178 22.3178 24 20.25 24C19.7322 24 19.3125 23.5803 19.3125 23.0625C19.3125 22.5447 19.7322 22.125 20.25 22.125C21.2838 22.125 22.125 21.2838 22.125 20.25V18.5156C22.125 17.9978 22.5447 17.5781 23.0625 17.5781C23.5803 17.5781 24 17.9978 24 18.5156ZM16.4531 23.0625C16.4531 23.5803 16.0334 24 15.5156 24H3.75C1.68219 24 0 22.3178 0 20.25V18.5156C0 17.9978 0.419678 17.5781 0.9375 17.5781C1.45532 17.5781 1.875 17.9978 1.875 18.5156V20.25C1.875 21.2838 2.71619 22.125 3.75 22.125H15.5156C16.0334 22.125 16.4531 22.5447 16.4531 23.0625ZM15.4343 9.95746C15.8004 10.3235 15.8004 10.9171 15.4343 11.2833L13.9946 12.7231C13.4632 13.2543 12.757 13.5469 12.0057 13.5469C11.2544 13.5469 10.5482 13.2543 10.017 12.7231L8.57721 11.2833C8.211 10.9171 8.211 10.3237 8.57721 9.95746C8.94324 9.59143 9.53687 9.59143 9.90289 9.95746L11.1136 11.1682L11.1094 6.89154C11.1088 6.3739 11.5281 5.95367 12.046 5.95312H12.0469C12.5641 5.95312 12.9838 6.37225 12.9844 6.88971L12.9886 11.0773L14.1085 9.95746C14.4745 9.59143 15.0681 9.59143 15.4343 9.95746Z"/>
</mask>
<path d="M19.4815 13.4811L19.2043 13.2039C19.177 13.1766 19.1706 13.1321 19.1865 13.0939L19.1937 13.0763C19.209 13.0391 19.2519 13.0312 19.285 13.0312H19.6771C21.0527 13.0312 22.1719 11.9022 22.1719 10.5143V9.73572C22.1719 9.06702 21.9097 8.44226 21.4338 7.97681C20.965 7.51813 20.3412 7.26562 19.6771 7.26562H19.2849C19.2695 7.26562 19.2184 7.2334 19.192 7.16968L19.1876 7.15924C19.1704 7.11786 19.177 7.07336 19.2043 7.04608L19.4815 6.76886C19.9526 6.29773 20.2123 5.67114 20.2123 5.00482C20.2123 4.3385 19.9526 3.71191 19.4815 3.24078L18.9309 2.69037C18.4598 2.21906 17.8334 1.95959 17.1669 1.95959C16.5005 1.95959 15.8741 2.21906 15.403 2.69037L15.1256 2.96759C15.0983 2.99487 15.054 3.00146 15.0139 2.9848L14.998 2.97821C14.9608 2.96283 14.9529 2.91998 14.9529 2.88684V2.49463C14.9531 1.11914 13.8241 0 12.4362 0H11.6576C10.2697 0 9.14062 1.11914 9.14062 2.49463V2.88684C9.14062 2.91998 9.13275 2.96283 9.0965 2.97766L9.08112 2.98407C9.03973 3.00128 8.99524 2.99487 8.96796 2.96759L8.69073 2.69019C8.2196 2.21906 7.59302 1.95959 6.9267 1.95959C6.26038 1.95959 5.63379 2.21906 5.16266 2.69019L4.61224 3.24078C4.14093 3.71191 3.88147 4.3385 3.88147 5.00482C3.88147 5.67114 4.14093 6.29773 4.61206 6.76886L4.88947 7.04608C4.91675 7.07336 4.92316 7.11786 4.90668 7.15778L4.8999 7.17371C4.88452 7.21088 4.84186 7.21875 4.80872 7.21875H4.4165C3.04102 7.21875 1.92188 8.34778 1.92188 9.73572V10.5143C1.92188 11.183 2.18408 11.8077 2.65997 12.2732C3.12872 12.7319 3.75256 12.9844 4.4165 12.9844H4.80872C4.8241 12.9844 4.87537 13.0166 4.90155 13.08L4.90594 13.0908C4.92316 13.1321 4.91675 13.1766 4.88947 13.2039L4.61206 13.4811C3.6394 14.4538 3.6394 16.0366 4.61206 17.0092L5.16266 17.5598C6.13531 18.5325 7.71808 18.5325 8.69073 17.5598L8.96796 17.2824C8.99524 17.2551 9.03973 17.2487 9.07965 17.2652L9.09558 17.272C9.13275 17.2872 9.14062 17.33 9.14062 17.3632V17.7552C9.14062 19.1309 10.2697 20.25 11.6576 20.25H12.4362C13.8241 20.25 14.9531 19.1309 14.9531 17.7552V17.3632C14.9531 17.33 14.961 17.2872 14.9982 17.272L15.0126 17.2659C15.054 17.2487 15.0985 17.2551 15.1258 17.2824L15.403 17.5598C16.3757 18.5325 17.9584 18.5325 18.9311 17.5598L19.4817 17.0092C20.4543 16.0366 20.4543 14.4538 19.4815 13.4811ZM17.8786 14.5298L18.1558 14.807C18.3973 15.0485 18.3973 15.4418 18.1558 15.6833L17.6052 16.2339C17.3635 16.4756 16.9704 16.4755 16.7289 16.2339L16.4517 15.9567C15.8857 15.3907 15.0385 15.2249 14.2923 15.5347L14.2824 15.5387C13.5509 15.8408 13.0781 16.5569 13.0781 17.3632V17.7552C13.0781 18.0912 12.7842 18.375 12.4362 18.375H11.6576C11.3097 18.375 11.0156 18.0912 11.0156 17.7552V17.3632C11.0156 16.5569 10.5428 15.8408 9.81134 15.5387L9.80017 15.5341C9.55115 15.4307 9.29059 15.3805 9.03296 15.3805C8.52026 15.3805 8.01892 15.5799 7.64209 15.9565L7.36487 16.2339C7.12335 16.4756 6.73022 16.4755 6.48853 16.2339L5.93793 15.6833C5.69641 15.4418 5.69641 15.0485 5.93793 14.807L6.21533 14.5298C6.78131 13.9638 6.94702 13.1166 6.63647 12.3688L6.63318 12.3605C6.32391 11.6122 5.59094 11.1094 4.80872 11.1094H4.4165C4.06915 11.1094 3.79688 10.8481 3.79688 10.5143V9.73572C3.79688 9.38763 4.08069 9.09375 4.4165 9.09375H4.80872C5.61475 9.09375 6.33087 8.62097 6.63446 7.88599L6.63757 7.8783C6.94702 7.13342 6.78113 6.28619 6.21515 5.72021L5.93793 5.44299C5.82092 5.32599 5.75647 5.17035 5.75647 5.00482C5.75647 4.83929 5.82092 4.68365 5.93793 4.56665L6.48853 4.01605C6.60571 3.89905 6.76117 3.83459 6.9267 3.83459C7.09222 3.83459 7.24786 3.89905 7.36487 4.01605L7.64227 4.29327C8.20825 4.85925 9.0553 5.02515 9.80164 4.71515L9.81134 4.71112C10.5428 4.409 11.0156 3.69287 11.0156 2.88684V2.49463C11.0156 2.15881 11.3095 1.875 11.6576 1.875H12.4362C12.7842 1.875 13.0781 2.15881 13.0781 2.49463V2.88684C13.0781 3.69287 13.5509 4.409 14.2833 4.71149L14.2936 4.7157C15.0385 5.02515 15.8855 4.85944 16.4517 4.29327L16.7289 4.01605C16.8459 3.89905 17.0015 3.83459 17.1671 3.83459C17.3326 3.83459 17.4882 3.89905 17.6052 4.01605L18.1558 4.56665C18.2728 4.68365 18.3373 4.83929 18.3373 5.00482C18.3373 5.17035 18.2728 5.32599 18.1558 5.44299L17.8784 5.72021C17.3124 6.28619 17.1467 7.13342 17.4565 7.87958L17.4606 7.88947C17.7697 8.63782 18.5028 9.14062 19.285 9.14062H19.6772C20.0246 9.14062 20.2969 9.40192 20.2969 9.73572V10.5143C20.2969 10.8622 20.0131 11.1562 19.6772 11.1562H19.285C18.479 11.1562 17.7629 11.629 17.4611 12.3598L17.4562 12.3717C17.1467 13.1166 17.3124 13.9638 17.8786 14.5298ZM24 18.5156V20.25C24 22.3178 22.3178 24 20.25 24C19.7322 24 19.3125 23.5803 19.3125 23.0625C19.3125 22.5447 19.7322 22.125 20.25 22.125C21.2838 22.125 22.125 21.2838 22.125 20.25V18.5156C22.125 17.9978 22.5447 17.5781 23.0625 17.5781C23.5803 17.5781 24 17.9978 24 18.5156ZM16.4531 23.0625C16.4531 23.5803 16.0334 24 15.5156 24H3.75C1.68219 24 0 22.3178 0 20.25V18.5156C0 17.9978 0.419678 17.5781 0.9375 17.5781C1.45532 17.5781 1.875 17.9978 1.875 18.5156V20.25C1.875 21.2838 2.71619 22.125 3.75 22.125H15.5156C16.0334 22.125 16.4531 22.5447 16.4531 23.0625ZM15.4343 9.95746C15.8004 10.3235 15.8004 10.9171 15.4343 11.2833L13.9946 12.7231C13.4632 13.2543 12.757 13.5469 12.0057 13.5469C11.2544 13.5469 10.5482 13.2543 10.017 12.7231L8.57721 11.2833C8.211 10.9171 8.211 10.3237 8.57721 9.95746C8.94324 9.59143 9.53687 9.59143 9.90289 9.95746L11.1136 11.1682L11.1094 6.89154C11.1088 6.3739 11.5281 5.95367 12.046 5.95312H12.0469C12.5641 5.95312 12.9838 6.37225 12.9844 6.88971L12.9886 11.0773L14.1085 9.95746C14.4745 9.59143 15.0681 9.59143 15.4343 9.95746Z" fill="#F7AB3A" stroke="#F5FAFF" stroke-width="0.6" mask="url(#path-1-inside-1_30_1728)"/>
</g>
<defs>
<clipPath id="clip0_30_1728">
<rect width="24" height="24" fill="white"/>
</clipPath>
</defs>
</svg>
