<svg width="32" height="32" viewBox="0 0 32 32" fill="none" xmlns="http://www.w3.org/2000/svg">
<g clip-path="url(#clip0_30_1736)">
<path d="M31.6035 16.9676C31.275 16.362 31.275 15.6389 31.6034 15.0332C32.3558 13.6456 32.012 11.9169 30.7858 10.9229C30.2506 10.489 29.9739 9.82088 30.0455 9.13569C30.2096 7.56576 29.2305 6.10027 27.7172 5.65108C27.0567 5.45508 26.5454 4.94371 26.3493 4.28327C25.9002 2.77009 24.4347 1.79053 22.8648 1.95497C22.1792 2.02659 21.5114 1.74985 21.0775 1.21466C20.0834 -0.0116473 18.3548 -0.355521 16.9671 0.396914C16.3615 0.725287 15.6384 0.725287 15.0327 0.396914C13.6452 -0.355458 11.9165 -0.0117099 10.9223 1.21454C10.4885 1.74972 9.81985 2.02666 9.1351 1.95484C7.56511 1.79053 6.09968 2.7699 5.65049 4.28315C5.45449 4.94358 4.94318 5.45496 4.28268 5.65096C2.76944 6.10014 1.79019 7.56557 1.95432 9.1355C2.02594 9.82069 1.74926 10.4888 1.21401 10.9227C-0.012112 11.9167 -0.355986 13.6454 0.396449 15.033C0.724885 15.6387 0.724885 16.3619 0.396449 16.9675C-0.355986 18.3551 -0.0121744 20.0838 1.21401 21.0778C1.74919 21.5117 2.02594 22.1798 1.95438 22.865C1.79019 24.4349 2.76938 25.9004 4.28268 26.3496C4.94318 26.5456 5.45449 27.057 5.65055 27.7174C6.09974 29.2307 7.56505 30.2102 9.1351 30.0457C9.82079 29.9741 10.4885 30.2509 10.9224 30.786C11.9164 32.0122 13.6451 32.356 15.0328 31.6036C15.6385 31.2752 16.3615 31.2752 16.9672 31.6036C17.4606 31.8711 17.9969 32 18.5281 32C19.4911 32 20.4369 31.5762 21.0776 30.786C21.5114 30.2509 22.1802 29.9742 22.8648 30.0457C22.9798 30.0577 23.094 30.0637 23.2075 30.0637C24.6437 30.0636 25.9331 29.1199 26.3494 27.7174C26.5455 27.0569 27.0567 26.5456 27.7173 26.3495C29.2305 25.9003 30.2098 24.4349 30.0456 22.8649C29.974 22.1798 30.2506 21.5116 30.7859 21.0778C32.0121 20.0838 32.3559 18.3552 31.6035 16.9676ZM30.5045 17.5636C30.9701 18.4222 30.7574 19.4919 29.9986 20.1071C29.1338 20.8083 28.6865 21.888 28.8023 22.9953C28.9038 23.9668 28.2979 24.8736 27.3615 25.1516C26.2942 25.4684 25.4678 26.2947 25.151 27.3621C24.8731 28.2984 23.9672 28.9049 22.9947 28.8029C21.8874 28.6872 20.8077 29.1344 20.1066 29.9992C19.4914 30.758 18.4217 30.9707 17.563 30.5052C17.0736 30.2397 16.5369 30.1071 16 30.1071C15.4631 30.1071 14.9262 30.2399 14.4369 30.5052C13.5783 30.9709 12.5085 30.758 11.8934 29.9993C11.1923 29.1344 10.1127 28.687 9.0051 28.8029C8.03392 28.9047 7.12686 28.2986 6.84886 27.3622C6.53205 26.2948 5.70568 25.4684 4.63837 25.1516C3.702 24.8737 3.096 23.9668 3.19756 22.9954C3.31337 21.8881 2.86606 20.8084 2.00126 20.1072C1.24245 19.4921 1.0297 18.4224 1.49532 17.5637C2.02601 16.5849 2.02601 15.4163 1.49532 14.4374C1.0297 13.5788 1.24245 12.5091 2.00126 11.8939C2.86606 11.1927 3.31331 10.1131 3.19756 9.00569C3.096 8.03426 3.70194 7.12739 4.63837 6.84945C5.70568 6.53264 6.53205 5.70627 6.84886 4.63883C7.12673 3.70253 8.03311 3.09628 9.0051 3.19809C10.1125 3.31384 11.1922 2.86659 11.8933 2.00172C12.5085 1.24291 13.5782 1.03029 14.4368 1.49578C15.4156 2.02653 16.5841 2.02653 17.563 1.49578C18.4216 1.0301 19.4914 1.24291 20.1065 2.00166C20.8076 2.86653 21.8867 3.31378 22.9948 3.19803C23.9661 3.09665 24.8731 3.70234 25.151 4.63877C25.4678 5.70614 26.2942 6.53251 27.3615 6.84926C28.2978 7.1272 28.9038 8.03407 28.8023 9.0055C28.6865 10.1128 29.1338 11.1925 29.9986 11.8937C30.7574 12.5088 30.9701 13.5785 30.5045 14.4372C29.9738 15.4161 29.9738 16.5848 30.5045 17.5636Z" fill="#F7AB3A"/>
<path d="M21.9761 4.87531C19.6359 3.61719 16.8903 3.12769 14.2455 3.49694C11.5108 3.87869 9.03054 5.11525 7.07286 7.07293C5.21162 8.93417 3.99506 11.2851 3.55487 13.8714C3.12438 16.4005 3.46175 18.9639 4.5305 21.2844C4.63593 21.5132 4.86212 21.6481 5.09856 21.6481C5.18606 21.6481 5.27493 21.6296 5.35968 21.5906C5.67324 21.4462 5.8103 21.075 5.66587 20.7614C3.68281 16.4559 4.60343 11.3101 7.95673 7.95674C11.4795 4.43419 17.0008 3.61969 21.3841 5.97631C21.6881 6.13974 22.0671 6.02581 22.2305 5.72181C22.394 5.41775 22.2801 5.03875 21.9761 4.87531Z" fill="#F7AB3A"/>
<path d="M7.98319 24.07L7.95663 24.0434C7.7125 23.7993 7.31688 23.7993 7.07269 24.0434C6.82863 24.2875 6.82863 24.6832 7.07269 24.9273L7.09932 24.9539C7.22138 25.076 7.38132 25.137 7.54125 25.137C7.70119 25.137 7.86113 25.076 7.98319 24.9539C8.22725 24.7098 8.22725 24.3141 7.98319 24.07Z" fill="#F7AB3A"/>
<path d="M27.0804 9.94175C26.9146 9.63887 26.5346 9.52787 26.2321 9.69356C25.9293 9.85931 25.8182 10.2391 25.9839 10.5419C28.3918 14.9412 27.594 20.4933 24.0438 24.0436C20.7004 27.3871 15.744 28.3177 11.4169 26.4146C11.1008 26.2756 10.7321 26.4191 10.5931 26.7351C10.4541 27.051 10.5976 27.4198 10.9135 27.5588C12.5247 28.2674 14.2477 28.6272 15.9886 28.6272C16.7362 28.6272 17.4872 28.5609 18.2341 28.4273C20.7788 27.9721 23.0934 26.7619 24.9278 24.9276C26.8971 22.9583 28.1358 20.4623 28.51 17.7095C28.8719 15.046 28.3642 12.2874 27.0804 9.94175Z" fill="#F7AB3A"/>
<path d="M24.9436 7.08901L24.9273 7.07269C24.6832 6.82863 24.2876 6.82863 24.0434 7.07269C23.7993 7.31676 23.7993 7.7125 24.0434 7.95663L24.0598 7.97294C24.1818 8.095 24.3418 8.156 24.5017 8.156C24.6616 8.156 24.8216 8.095 24.9436 7.97294C25.1877 7.72888 25.1877 7.33313 24.9436 7.08901Z" fill="#F7AB3A"/>
<path d="M23.9376 16.6252C23.9376 15.9165 23.514 15.3054 22.9069 15.0305C22.989 14.8279 23.0346 14.6068 23.0346 14.3752C23.0346 13.4102 22.2496 12.6252 21.2846 12.6252H18.5667L18.7451 12.0952C19.027 11.2585 18.9596 10.3654 18.5556 9.58031C18.1515 8.79525 17.4637 8.2215 16.619 7.96469C16.3008 7.86788 15.9627 8.03732 15.8495 8.35L14.8928 10.9941C14.6444 11.6806 14.1545 12.2509 13.5134 12.6L12.7536 13.0137C12.5012 12.7733 12.16 12.6252 11.7847 12.6252H9.09374C8.31837 12.6252 7.6875 13.256 7.6875 14.0314V21.4689C7.6875 22.2443 8.31837 22.8751 9.09374 22.8751H11.7847C12.2148 22.8752 12.6002 22.6809 12.8584 22.3758L13.1439 22.4878C13.7995 22.7449 14.489 22.8753 15.1933 22.8753H20.5001C21.4651 22.8753 22.2501 22.0902 22.2501 21.1253C22.2501 20.8895 22.203 20.6646 22.1181 20.4591C22.7123 20.179 23.1246 19.5745 23.1246 18.8753C23.1246 18.6298 23.0736 18.3961 22.9819 18.1838C23.5486 17.8937 23.9376 17.3042 23.9376 16.6252ZM11.941 21.4689C11.941 21.555 11.8709 21.6251 11.7847 21.6251H9.09381C9.00762 21.6251 8.93756 21.5551 8.93756 21.4689V14.0314C8.93756 13.9453 9.00762 13.8752 9.09381 13.8752H11.7847C11.8482 13.8752 11.9027 13.9134 11.9272 13.9679C11.9305 13.9843 11.9348 14.0006 11.9395 14.0169C11.94 14.0217 11.941 14.0264 11.941 14.0314V21.4689ZM22.1876 17.1253H19.3751C19.03 17.1253 18.7501 17.4051 18.7501 17.7503C18.7501 18.0955 19.03 18.3753 19.3751 18.3753H21.3746C21.6503 18.3753 21.8746 18.5996 21.8746 18.8753C21.8746 19.151 21.6503 19.3753 21.3746 19.3753H19.3751C19.03 19.3753 18.7501 19.6551 18.7501 20.0003C18.7501 20.3455 19.03 20.6253 19.3751 20.6253H20.5001C20.7758 20.6253 21.0001 20.8496 21.0001 21.1253C21.0001 21.401 20.7758 21.6253 20.5001 21.6253H20.0376H15.1932C14.6458 21.6253 14.1099 21.5239 13.6003 21.3241L13.1909 21.1635V14.1989L14.1112 13.6978C15.0208 13.2025 15.7159 12.3934 16.0683 11.4194L16.7932 9.41606C17.0657 9.60019 17.2891 9.85093 17.4443 10.1524C17.6923 10.6343 17.7336 11.1826 17.5606 11.6962L17.1045 13.0507C17.0402 13.2414 17.0718 13.4514 17.1892 13.6148C17.3065 13.7782 17.4955 13.8752 17.6967 13.8752H21.2846C21.5603 13.8752 21.7846 14.0995 21.7846 14.3752C21.7846 14.6509 21.5603 14.8752 21.2846 14.8752H19.3751C19.03 14.8752 18.7501 15.155 18.7501 15.5002C18.7501 15.8453 19.03 16.1252 19.3751 16.1252L22.1876 16.1252C22.4633 16.1252 22.6876 16.3495 22.6876 16.6252C22.6876 16.9009 22.4633 17.1253 22.1876 17.1253Z" fill="#F7AB3A"/>
</g>
<defs>
<clipPath id="clip0_30_1736">
<rect width="32" height="32" fill="white"/>
</clipPath>
</defs>
</svg>
