<svg width="24" height="24" viewBox="0 0 24 24" fill="none" xmlns="http://www.w3.org/2000/svg">
<path d="M5.79199 6.91675H19.0074C19.2752 6.91676 19.54 6.97044 19.7848 7.07433C20.0295 7.17822 20.2488 7.33001 20.4285 7.51993C20.6082 7.70984 20.7442 7.93366 20.8279 8.17696C20.9117 8.42026 20.9411 8.67764 20.9145 8.9325L20.3395 14.4325C20.2922 14.8849 20.0709 15.3043 19.7185 15.6094C19.3661 15.9145 18.9077 16.0834 18.4324 16.0834H9.28033C8.83707 16.0836 8.40745 15.9368 8.06463 15.668C7.7218 15.3993 7.48695 15.0252 7.40008 14.6094L5.79199 6.91675Z" stroke="#989898" stroke-width="1.5" stroke-linecap="round" stroke-linejoin="round"/>
<path d="M5.79199 6.91667L5.01574 3.94392C4.96383 3.74569 4.84415 3.56974 4.67573 3.44402C4.50731 3.31829 4.2998 3.25001 4.08616 3.25H2.91699" stroke="#989898" stroke-width="1.5" stroke-linecap="round" stroke-linejoin="round"/>
<path d="M8.66699 19.75H10.5837" stroke="#989898" stroke-width="1.5" stroke-linecap="round" stroke-linejoin="round"/>
<path d="M16.333 19.75H18.2497" stroke="#989898" stroke-width="1.5" stroke-linecap="round" stroke-linejoin="round"/>
</svg>
