<svg width="20.000000" height="20.000000" viewBox="0 0 20 20" fill="none" xmlns="http://www.w3.org/2000/svg" xmlns:xlink="http://www.w3.org/1999/xlink">
	<desc>
			Created with Pixso.
	</desc>
	<defs/>
	<path id="Vector" d="M6.62 19.25L6.62 13.3C6.62 12.75 7.07 12.3 7.62 12.3L11.17 12.3C11.73 12.3 12.17 12.75 12.17 13.3L12.17 19.25L6.62 19.25Z" stroke="#989898" stroke-opacity="1.000000" stroke-width="1.500000" stroke-linejoin="round"/>
	<path id="Vector" d="M18.65 16.1C18.65 17.84 17.31 19.25 15.65 19.25L3.15 19.25C1.49 19.25 0.15 17.84 0.15 16.1L0.15 9.39C0.15 8.44 0.54 7.56 1.23 6.96L7.48 1.47C8.59 0.5 10.21 0.5 11.32 1.47L17.57 6.96C18.26 7.56 18.65 8.44 18.65 9.39L18.65 16.1Z" stroke="#989898" stroke-opacity="1.000000" stroke-width="1.500000" stroke-linejoin="round"/>
</svg>
