<svg width="24.000000" height="24.000000" viewBox="0 0 24 24" fill="none" xmlns="http://www.w3.org/2000/svg" xmlns:xlink="http://www.w3.org/1999/xlink">
	<desc>
			Created with Pixso.
	</desc>
	<defs/>
	<path d="M4.01 12.94C4.04 12.92 4.08 12.9 4.12 12.89C4.73 12.6 5.35 12.34 5.97 12.07C6 12.07 6.06 12.03 6.09 12.02C6.14 12 6.19 11.98 6.24 11.96C6.33 11.92 6.42 11.88 6.51 11.84C6.7 11.76 6.88 11.68 7.06 11.6C7.43 11.45 7.8 11.29 8.17 11.13C8.9 10.82 9.64 10.5 10.38 10.19C11.11 9.87 11.85 9.55 12.59 9.24C13.32 8.93 14.06 8.61 14.8 8.29C15.53 7.98 16.27 7.66 17.01 7.35C17.17 7.28 17.35 7.17 17.52 7.14C17.67 7.12 17.81 7.07 17.96 7.04C18.24 6.98 18.55 6.96 18.82 7.08C18.92 7.12 19 7.18 19.07 7.25C19.41 7.59 19.37 8.14 19.29 8.62C18.79 11.93 18.29 15.25 17.78 18.57C17.71 19.02 17.62 19.52 17.26 19.81C16.96 20.05 16.52 20.08 16.15 19.98C15.77 19.87 15.44 19.66 15.12 19.44C13.77 18.55 12.42 17.66 11.08 16.77C10.76 16.55 10.4 16.28 10.41 15.89C10.41 15.66 10.54 15.45 10.69 15.27C11.86 13.74 13.54 12.69 14.8 11.24C14.98 11.03 15.12 10.66 14.87 10.54C14.73 10.47 14.56 10.57 14.43 10.66C12.77 11.81 11.11 12.97 9.45 14.12C8.91 14.5 8.34 14.88 7.69 14.98C7.1 15.06 6.52 14.9 5.95 14.73C5.48 14.59 5 14.45 4.53 14.3C4.28 14.22 4.02 14.14 3.83 13.96C3.64 13.79 3.53 13.49 3.64 13.25C3.72 13.11 3.86 13.01 4.01 12.94L4.01 12.94Z" fill="#989898" fill-opacity="1.000000" fill-rule="nonzero"/>
</svg>
