<svg width="24.000000" height="24.000000" viewBox="0 0 24 24" fill="none" xmlns="http://www.w3.org/2000/svg" xmlns:xlink="http://www.w3.org/1999/xlink">
	<desc>
			Created with Pixso.
	</desc>
	<defs/>
	<path d="M14.39 15.89C10.98 15.89 8.21 13.12 8.21 9.71C8.21 8.84 8.91 8.14 9.78 8.14C9.86 8.14 9.95 8.15 10.04 8.16C10.22 8.19 10.4 8.26 10.56 8.35C10.58 8.36 10.6 8.39 10.6 8.41L10.96 10.68C10.96 10.71 10.96 10.74 10.94 10.76C10.74 10.98 10.49 11.13 10.2 11.21L10.07 11.25L10.12 11.38C10.58 12.57 11.53 13.51 12.71 13.98L12.85 14.03L12.88 13.9C12.96 13.61 13.12 13.36 13.34 13.16C13.36 13.14 13.38 13.14 13.4 13.14C13.41 13.14 13.41 13.14 13.41 13.14L15.69 13.5C15.71 13.5 15.74 13.52 15.75 13.54C15.84 13.7 15.9 13.88 15.94 14.06C15.95 14.15 15.96 14.23 15.96 14.32C15.96 15.19 15.25 15.89 14.39 15.89Z" fill="#989898" fill-opacity="1.000000" fill-rule="nonzero"/>
	<path d="M20.44 11.25C20.25 9.17 19.3 7.24 17.76 5.82C16.2 4.39 14.19 3.6 12.08 3.6C7.45 3.6 3.69 7.37 3.69 12C3.69 13.55 4.12 15.06 4.93 16.38L3.12 20.38L8.91 19.77C9.92 20.18 10.98 20.39 12.08 20.39C12.37 20.39 12.66 20.37 12.96 20.34C13.22 20.31 13.49 20.27 13.75 20.22C17.62 19.44 20.45 16 20.47 12.04L20.47 12C20.47 11.74 20.46 11.49 20.44 11.25L20.44 11.25ZM9.13 18.01L5.93 18.35L6.89 16.23L6.7 15.97C6.68 15.96 6.67 15.94 6.65 15.92C5.82 14.77 5.38 13.41 5.38 12C5.38 8.3 8.39 5.3 12.08 5.3C15.54 5.3 18.47 8 18.75 11.44C18.77 11.63 18.78 11.81 18.78 12C18.78 12.05 18.78 12.1 18.78 12.16C18.71 15.25 16.55 17.87 13.53 18.54C13.3 18.59 13.06 18.63 12.83 18.65C12.58 18.68 12.33 18.7 12.08 18.7C11.19 18.7 10.33 18.52 9.52 18.18C9.43 18.15 9.34 18.11 9.26 18.07L9.13 18.01L9.13 18.01Z" fill="#989898" fill-opacity="1.000000" fill-rule="nonzero"/>
</svg>
